<svg width="85" height="85" viewBox="0 0 85 85" fill="none" xmlns="http://www.w3.org/2000/svg">
<rect width="85" height="85" rx="42.5" fill="#7E7E7E"/>
<path d="M33.0716 57C32.5222 57 31.9953 56.7818 31.6068 56.3933C31.2183 56.0048 31 55.4779 31 54.9285V30.0704C31.0002 29.7174 31.0906 29.3704 31.2626 29.0621C31.4346 28.7539 31.6825 28.4947 31.9827 28.3092C32.283 28.1237 32.6258 28.018 32.9784 28.0021C33.331 27.9862 33.6818 28.0607 33.9976 28.2185L58.8566 40.6475C59.2003 40.8197 59.4892 41.0842 59.6911 41.4112C59.8931 41.7383 60 42.1151 60 42.4994C60 42.8838 59.8931 43.2606 59.6911 43.5877C59.4892 43.9147 59.2003 44.1792 58.8566 44.3514L33.9976 56.7804C33.7101 56.9245 33.3931 56.9997 33.0716 57ZM44.4653 46.9159L35.1432 51.5768L53.2986 42.4994L44.4653 46.9159Z" fill="white"/>
</svg>
