<svg width="17" height="16" viewBox="0 0 17 16" fill="none" xmlns="http://www.w3.org/2000/svg">
<path d="M7.78671 1.01414C8.01122 0.323152 8.98878 0.323153 9.21329 1.01414L10.5768 5.21044C10.6772 5.51946 10.9651 5.72868 11.29 5.72868H15.7023C16.4288 5.72868 16.7309 6.65839 16.1431 7.08544L12.5736 9.6789C12.3107 9.86988 12.2007 10.2084 12.3011 10.5174L13.6646 14.7137C13.8891 15.4047 13.0982 15.9793 12.5104 15.5523L8.94084 12.9588C8.67797 12.7678 8.32203 12.7678 8.05916 12.9588L4.48957 15.5523C3.90179 15.9793 3.11093 15.4047 3.33544 14.7137L4.6989 10.5174C4.79931 10.2084 4.68931 9.86988 4.42645 9.6789L0.856858 7.08544C0.269073 6.65839 0.571155 5.72868 1.2977 5.72868H5.70995C6.03487 5.72868 6.32284 5.51946 6.42325 5.21044L7.78671 1.01414Z" fill="#FCE700"/>
</svg>
