<svg width="18" height="18" viewBox="0 0 18 18" fill="none" xmlns="http://www.w3.org/2000/svg">
<path d="M8.28072 1.25393C8.49243 0.53721 9.50757 0.537209 9.71928 1.25393L11.0864 5.88212C11.1805 6.20089 11.4733 6.41966 11.8056 6.41966H16.3708C17.0799 6.41966 17.393 7.31282 16.839 7.75554L13.0266 10.8024C12.7884 10.9928 12.6892 11.3084 12.7755 11.6008L14.2022 16.4307C14.4101 17.1344 13.5879 17.6871 13.0147 17.229L9.46824 14.3947C9.19443 14.1759 8.80557 14.1759 8.53177 14.3947L4.98531 17.229C4.41207 17.6871 3.58992 17.1344 3.7978 16.4307L5.22445 11.6008C5.31082 11.3084 5.21159 10.9928 4.97341 10.8024L1.16097 7.75554C0.607002 7.31282 0.920056 6.41966 1.6292 6.41966H6.19436C6.52674 6.41966 6.81948 6.20089 6.91364 5.88212L8.28072 1.25393Z" fill="#FCE700"/>
</svg>
