<svg width="18" height="18" viewBox="0 0 18 18" fill="none" xmlns="http://www.w3.org/2000/svg">
<path d="M8.28671 1.01413C8.51122 0.323151 9.48878 0.323153 9.71329 1.01414L11.3013 5.90142C11.4017 6.21044 11.6896 6.41966 12.0146 6.41966H17.1534C17.8799 6.41966 18.182 7.34937 17.5942 7.77642L13.4368 10.7969C13.174 10.9879 13.064 11.3264 13.1644 11.6355L14.7523 16.5227C14.9769 17.2137 14.186 17.7883 13.5982 17.3613L9.44084 14.3408C9.17797 14.1498 8.82203 14.1498 8.55916 14.3408L4.40178 17.3613C3.814 17.7883 3.02314 17.2137 3.24765 16.5227L4.83563 11.6355C4.93604 11.3264 4.82604 10.9879 4.56318 10.7969L0.4058 7.77642C-0.181985 7.34937 0.120099 6.41966 0.846641 6.41966H5.98544C6.31036 6.41966 6.59833 6.21044 6.69873 5.90142L8.28671 1.01413Z" fill="#FCE700"/>
</svg>
