<svg width="19" height="18" viewBox="0 0 19 18" fill="none" xmlns="http://www.w3.org/2000/svg">
<path d="M8.78366 1.12849C9.00194 0.424722 9.99806 0.424721 10.2163 1.12849L11.6937 5.89183C11.791 6.20571 12.0814 6.41966 12.41 6.41966H17.2624C17.9805 6.41966 18.288 7.33155 17.7167 7.76645L13.7319 10.7994C13.4812 10.9903 13.3764 11.3174 13.4698 11.6184L14.9775 16.4797C15.1937 17.1769 14.3878 17.7407 13.8069 17.2987L9.95424 14.3662C9.68586 14.1619 9.31414 14.1619 9.04576 14.3662L5.19306 17.2987C4.61223 17.7407 3.80625 17.1769 4.02248 16.4797L5.53021 11.6184C5.62355 11.3174 5.51884 10.9903 5.26812 10.7994L1.28335 7.76645C0.711963 7.33155 1.01952 6.41966 1.73759 6.41966H6.58997C6.9186 6.41966 7.20896 6.20571 7.30631 5.89183L8.78366 1.12849Z" fill="#FCE700"/>
</svg>
